<svg width="35" height="35" viewBox="0 0 35 35" fill="none" xmlns="http://www.w3.org/2000/svg">
<path fill-rule="evenodd" clip-rule="evenodd" d="M6.40499 2.42939L0.0279864 15.8344C-0.0210136 15.9394 -1.3584e-05 16.0584 0.0839864 16.1354L17.318 32.6484C17.423 32.7464 17.577 32.7464 17.682 32.6484L34.916 16.1354C35 16.0584 35.021 15.9324 34.972 15.8344L28.595 2.42939C28.553 2.33839 28.462 2.27539 28.357 2.27539H6.64299C6.54499 2.27539 6.45399 2.33139 6.40499 2.42939Z" fill="#50AF95"/>
<path fill-rule="evenodd" clip-rule="evenodd" d="M19.712 17.2058C19.586 17.2128 18.949 17.2548 17.521 17.2548C16.387 17.2548 15.582 17.2198 15.302 17.2058C10.92 17.0098 7.64403 16.2468 7.64403 15.3368C7.64403 14.4198 10.913 13.6638 15.302 13.4678V16.4498C15.589 16.4708 16.408 16.5198 17.542 16.5198C18.9 16.5198 19.586 16.4638 19.705 16.4498V13.4678C24.08 13.6638 27.342 14.4268 27.342 15.3368C27.342 16.2468 24.087 17.0098 19.712 17.2058ZM19.712 13.1598V10.4928H25.816V6.42578H9.19803V10.4928H15.302V13.1598C10.339 13.3908 6.60803 14.3708 6.60803 15.5468C6.60803 16.7228 10.339 17.7028 15.302 17.9338V26.4808H19.712V17.9338C24.661 17.7028 28.385 16.7228 28.385 15.5468C28.385 14.3708 24.668 13.3908 19.712 13.1598Z" fill="white"/>
</svg>
